HIERARCHY
ROOT root
{
	OFFSET 0.000000 0.000000 0.000000
	CHANNELS 6 Xposition Yposition Zposition Zrotation Yrotation Xrotation
	JOINT lhip
	{
		OFFSET 0.058581 -0.082280 -0.017664
		CHANNELS 3 Zrotation Yrotation Xrotation
		JOINT lknee
		{
			OFFSET 0.043451 -0.386469 0.008037
			CHANNELS 3 Zrotation Yrotation Xrotation
			JOINT lankle
			{
				OFFSET -0.014790 -0.426874 -0.037428
				CHANNELS 3 Zrotation Yrotation Xrotation
				JOINT ltoe
				{
					OFFSET 0.041054 -0.060286 0.122042
					CHANNELS 3 Zrotation Yrotation Xrotation
					End Site
					{
						OFFSET 0.000000 0.000000 0.000000
					}
				}
			}
		}
	}
	JOINT rhip
	{
		OFFSET -0.060310 -0.090513 -0.013543
		CHANNELS 3 Zrotation Yrotation Xrotation
		JOINT rknee
		{
			OFFSET -0.043257 -0.383688 -0.004843
			CHANNELS 3 Zrotation Yrotation Xrotation
			JOINT rankle
			{
				OFFSET 0.019056 -0.420046 -0.034562
				CHANNELS 3 Zrotation Yrotation Xrotation
				JOINT rtoe
				{
					OFFSET -0.034840 -0.062106 0.130323
					CHANNELS 3 Zrotation Yrotation Xrotation
					End Site
					{
						OFFSET 0.000000 0.000000 0.000000
					}
				}
			}
		}
	}
	JOINT lowerback
	{
		OFFSET 0.004439 0.124404 -0.038385
		CHANNELS 3 Zrotation Yrotation Xrotation
		JOINT upperback
		{
			OFFSET 0.004488 0.137956 0.026820
			CHANNELS 3 Zrotation Yrotation Xrotation
			JOINT chest
			{
				OFFSET -0.002265 0.056032 0.002855
				CHANNELS 3 Zrotation Yrotation Xrotation
				JOINT lowerneck
				{
					OFFSET -0.013390 0.211636 -0.033468
					CHANNELS 3 Zrotation Yrotation Xrotation
					JOINT upperneck
					{
						OFFSET 0.010113 0.088937 0.050410
						CHANNELS 3 Zrotation Yrotation Xrotation
						End Site
						{
							OFFSET 0.000000 0.000000 0.000000
						}
					}
				}
				JOINT lclavicle
				{
					OFFSET 0.071702 0.114000 -0.018898
					CHANNELS 3 Zrotation Yrotation Xrotation
					JOINT lshoulder
					{
						OFFSET 0.122921 0.045205 -0.019046
						CHANNELS 3 Zrotation Yrotation Xrotation
						JOINT lelbow
						{
							OFFSET 0.255332 -0.015649 -0.022946
							CHANNELS 3 Zrotation Yrotation Xrotation
							JOINT lwrist
							{
								OFFSET 0.265709 0.012698 -0.007375
								CHANNELS 3 Zrotation Yrotation Xrotation
								End Site
								{
									OFFSET 0.000000 0.000000 0.000000
								}
							}
						}
					}
				}
				JOINT rclavicle
				{
					OFFSET -0.082954 0.112472 -0.023707
					CHANNELS 3 Zrotation Yrotation Xrotation
					JOINT rshoulder
					{
						OFFSET -0.113228 0.046853 -0.008472
						CHANNELS 3 Zrotation Yrotation Xrotation
						JOINT relbow
						{
							OFFSET -0.260127 -0.014369 -0.031269
							CHANNELS 3 Zrotation Yrotation Xrotation
							JOINT rwrist
							{
								OFFSET -0.269108 0.006794 -0.006027
								CHANNELS 3 Zrotation Yrotation Xrotation
								End Site
								{
									OFFSET 0.000000 0.000000 0.000000
								}
							}
						}
					}
				}
			}
		}
	}
}
MOTION
Frames: 13
Frame Time: 0.033333
1.175231 -0.467308 1.014151 -178.007993 1.454143 85.485787 -1.755707 0.959887 5.947160 -2.144445 -9.505513 2.922320 3.719710 7.260913 -9.830372 0.000000 -0.000000 0.000000 3.779504 0.705803 -1.240588 2.114803 2.109792 15.922668 2.954833 -0.321530 -11.573825 0.000000 -0.000000 0.000000 0.172890 -0.334929 13.161924 2.879210 -1.629454 2.352075 0.430950 -0.560272 1.659504 3.358276 -1.397738 14.105125 -2.938469 -7.106982 19.595232 -27.356515 0.437139 3.504907 -58.452562 -9.789494 10.979077 10.526547 -28.208073 3.017944 -3.993268 -3.785187 -4.025421 27.908663 5.688591 2.356585 56.280450 11.961318 14.124986 -13.860069 23.671305 -6.997966 4.915833 3.605526 -5.850436 
1.176247 -0.464306 1.014404 -179.706672 1.733889 85.542366 -1.655644 1.314860 6.051424 -1.839762 -8.576349 2.962914 3.600527 8.297284 -10.635309 0.000000 -0.000000 0.000000 4.140772 1.391006 -1.314324 2.328590 3.228217 16.199083 3.400004 0.140426 -11.889474 0.000000 -0.000000 0.000000 -0.004341 -0.687310 13.169358 3.126221 -1.527785 1.881057 0.526278 -0.599869 1.707437 3.367327 -4.913207 11.781750 -3.357225 -10.837542 18.830943 -27.521978 1.323301 3.451934 -58.861225 -9.606853 11.125262 11.067165 -28.823123 2.466723 -4.390738 -4.001795 -4.524081 27.582848 6.102218 1.667079 56.395062 11.378592 14.298812 -13.396013 21.561143 -6.868504 5.255358 3.440113 -5.274710 
1.176704 -0.461545 1.015078 178.095285 1.827220 85.645139 -1.698349 1.616440 6.287478 -1.823578 -7.459698 2.787730 3.837804 9.256996 -10.956942 0.000000 -0.000000 0.000000 4.248558 2.266941 -1.606129 2.438976 4.175559 16.638581 3.578277 0.658452 -11.320460 0.000000 -0.000000 0.000000 -0.369340 -1.075497 13.281568 3.291370 -1.661114 1.402581 0.438786 -0.719033 1.527286 4.245116 -8.968245 9.450260 -3.510870 -15.214480 17.690534 -27.929033 2.256646 3.928975 -58.662092 -9.376875 10.890850 11.475002 -29.357570 1.508599 -4.389465 -4.002652 -5.216730 27.818071 6.580000 0.704754 56.172848 10.989413 14.364027 -12.807257 19.119070 -6.509914 5.648162 2.893369 -4.200932 
1.178256 -0.459344 1.015961 174.251374 2.359643 85.884668 -1.417985 2.446493 6.535199 -1.421608 -5.604886 2.405733 4.174884 10.628164 -11.098151 0.000000 -0.000000 0.000000 4.874540 3.584701 -2.008888 2.649711 5.672012 17.035167 4.015865 1.988479 -10.175747 0.000000 -0.000000 0.000000 -0.728230 -1.814331 13.369062 3.767518 -1.963910 0.907900 0.547535 -0.749842 1.125370 5.003693 -14.951303 6.455592 -3.473572 -21.304949 15.869831 -27.604591 3.712219 3.998675 -59.810182 -8.306930 10.930032 12.277135 -29.728438 0.328237 -4.942766 -4.192620 -5.911790 26.792608 7.313904 -0.276846 56.956011 11.093901 14.550050 -12.285944 16.774487 -5.817857 6.086185 2.558078 -3.286371 
1.178183 -0.458053 1.016087 171.702812 2.492424 86.226155 -1.448606 2.820912 6.450197 -1.390214 -4.351502 2.109631 4.532439 11.621140 -11.010555 0.000000 -0.000000 0.000000 5.048865 4.552037 -2.561450 2.877517 6.624323 17.338561 4.018096 2.386401 -10.305920 0.000000 -0.000000 0.000000 -1.190313 -2.441107 13.059181 4.124562 -2.542175 0.696062 0.681551 -1.120969 1.089238 5.769558 -18.341583 4.881238 -3.373943 -24.431662 14.374706 -27.202632 3.695691 4.749443 -59.643271 -7.803062 11.040392 10.904562 -28.730743 0.453505 -4.039540 -4.589094 -7.186046 26.368960 8.233750 -0.567841 56.808820 11.376202 14.775634 -11.543020 16.477108 -5.046715 5.553260 2.036317 -3.481267 
1.178696 -0.456917 1.016311 168.082574 2.935278 86.493365 -1.256645 3.325445 6.445685 -1.083249 -2.910748 1.821537 4.197704 12.862862 -11.783167 0.000000 -0.000000 0.000000 5.579431 5.587003 -3.154682 3.131284 7.670505 17.632065 4.083674 2.933278 -9.701083 0.000000 -0.000000 0.000000 -1.733552 -3.210730 12.987115 4.762465 -3.434271 0.725706 1.143166 -1.923096 0.817494 7.051932 -22.738099 2.618296 -3.201233 -28.628715 12.281004 -27.005611 3.991301 5.407568 -60.276236 -6.900279 10.957236 10.761268 -27.616211 0.406759 -4.777355 -4.851671 -7.776062 25.771165 9.336689 -1.242316 57.098517 12.210582 14.986397 -11.359170 16.179068 -4.498914 5.683746 1.852134 -3.192667 
1.179267 -0.455070 1.015962 163.962236 3.296946 86.592050 -0.831615 4.363195 6.588601 -1.177378 -0.946194 1.725445 4.607903 13.700891 -11.197708 0.000000 -0.000000 0.000000 6.103344 6.531423 -3.472234 3.308644 8.902581 17.884147 3.765222 3.902587 -9.490011 0.000000 -0.000000 0.000000 -2.301614 -4.205938 13.119563 5.469103 -4.498022 0.683365 1.508868 -2.206702 0.361806 7.733751 -26.710705 1.177950 -2.965538 -32.474527 10.347846 -26.466899 3.835880 6.529538 -60.724974 -5.702772 10.940586 10.029841 -26.744926 1.969663 -6.511550 -5.007527 -7.451322 25.126589 10.252966 -1.415746 57.481024 12.851320 14.916879 -11.505212 17.424725 -3.497798 5.848979 2.128957 -3.082740 
1.179743 -0.453884 1.015352 160.021459 3.711538 87.046638 -0.576033 4.916542 6.153170 -1.146322 0.639845 1.854260 4.313048 13.989454 -11.938369 0.000000 -0.000000 0.000000 6.703589 7.591678 -4.054051 3.402102 10.175452 17.839295 3.702634 4.672042 -9.335829 0.000000 -0.000000 0.000000 -2.648979 -4.995854 12.718572 6.130452 -5.725626 0.739777 1.859627 -2.951408 0.163453 8.919630 -29.481448 -0.337112 -2.734599 -35.312566 8.798813 -26.056427 3.544641 7.270765 -60.870752 -4.888481 11.099170 9.073585 -25.307273 4.005121 -7.918226 -5.115918 -5.975274 25.036770 10.965193 -1.811897 57.576039 13.451183 15.172429 -11.478971 19.329493 -2.981288 5.766987 2.532517 -3.010609 
1.180838 -0.452031 1.014789 155.816582 4.357765 87.016747 0.424374 6.277910 6.597338 -1.556554 3.306786 1.809091 2.857857 13.057464 -12.791988 0.000000 -0.000000 0.000000 7.866052 9.241086 -3.561470 2.706404 11.171336 17.167441 3.009194 5.500212 -9.307118 0.000000 -0.000000 0.000000 -2.763489 -5.825395 12.501054 6.942985 -7.101151 2.213794 2.476157 -3.472897 -1.282680 8.455423 -31.997596 -0.387398 -1.746174 -36.555602 6.614597 -25.425984 1.910451 8.649063 -61.820634 -3.128938 11.545838 9.343117 -24.934728 6.186765 -9.457247 -6.450982 -5.638686 23.731261 11.617428 -0.466823 59.450207 15.233834 16.078522 -13.279815 20.813965 -1.960166 4.483837 4.839731 -3.944717 
1.180327 -0.451126 1.015131 152.199265 4.724598 87.441707 0.637757 7.066315 6.209310 -1.703596 4.846713 1.947877 2.888770 13.186626 -13.051744 0.000000 -0.000000 0.000000 8.067287 10.029858 -3.871092 2.624826 11.955621 16.406860 3.229519 6.236146 -8.056749 0.000000 -0.000000 0.000000 -3.118200 -6.991521 12.248955 8.018633 -8.662975 2.664374 2.939015 -4.161940 -1.461748 9.864638 -32.561232 -2.398953 -1.845771 -37.616234 5.433895 -25.294046 1.103209 8.781714 -60.994288 -3.046017 11.426017 8.301931 -23.647429 9.087580 -12.966266 -5.953324 -2.726078 23.575179 11.442507 -0.969391 59.468041 15.370166 16.634615 -13.975403 24.797067 -1.365768 5.208864 5.261752 -4.941925 
1.180227 -0.449425 1.015428 149.630502 5.163009 87.674944 1.068357 8.005418 6.255421 -1.788427 6.128025 1.612659 2.815881 13.534437 -12.829008 0.000000 -0.000000 0.000000 8.114687 10.631726 -3.937347 3.164458 12.719477 15.926972 3.863482 7.588680 -7.831616 0.000000 -0.000000 0.000000 -2.771999 -7.664436 12.101798 8.574108 -9.555527 2.827551 3.122907 -4.717149 -1.890266 9.943853 -32.737092 -2.555507 -1.252868 -37.840941 4.101552 -25.126268 0.290256 8.893300 -60.260287 -2.918164 10.982684 8.395930 -23.212925 9.913295 -14.793278 -5.264787 -0.667832 23.391769 11.065425 -1.100076 59.619009 14.948337 16.449514 -14.786007 27.675318 -1.551826 5.230316 5.607399 -5.849005 
1.180103 -0.448242 1.015758 148.184963 5.277152 87.800546 1.040119 8.593862 6.345447 -1.688253 6.578978 1.283706 2.277526 13.951861 -13.338678 0.000000 -0.000000 0.000000 8.093652 10.842432 -3.777095 3.108561 13.273289 15.242860 4.238770 8.227517 -7.878006 0.000000 -0.000000 0.000000 -2.691609 -7.997804 12.246023 9.115331 -10.419161 2.389740 3.379357 -5.131379 -1.918838 10.057208 -32.511952 -3.026026 -0.557338 -37.872479 3.004127 -24.728086 -0.614268 8.680861 -59.411987 -3.744255 10.541772 8.602703 -21.887171 9.395668 -13.558078 -4.888396 0.294305 23.079934 10.389191 -1.640956 59.491091 13.780025 16.410678 -15.088163 29.842810 -2.015805 3.338966 5.632247 -7.575719 
1.180147 -0.447665 1.016150 147.390751 5.560601 87.987177 1.347330 8.998038 6.257944 -1.807052 7.088390 1.051867 1.992304 14.216418 -13.555249 0.000000 -0.000000 0.000000 8.180679 11.039504 -3.778924 3.285850 13.528795 14.654366 4.380841 8.373424 -7.358243 0.000000 -0.000000 0.000000 -2.607545 -8.533194 12.139829 9.654438 -11.094640 2.270896 3.604312 -5.492677 -1.829463 10.272800 -32.904116 -3.194309 0.176654 -37.843464 1.700357 -24.644420 -0.865857 8.308264 -58.261565 -4.434267 9.890563 10.126453 -22.565262 7.064317 -11.323193 -4.277284 -0.024479 23.008315 9.904044 -2.011245 59.671009 13.058065 16.189443 -16.341016 29.821792 -3.764884 1.792921 5.536413 -8.561476 
